Simulation
nRows=36
nColumns=15
endheader
time  TH_x TH_y TH_z SC_y  SC_z  SC_x  AC_y  AC_z  AC_x  GH_y  GH_z  GH_yy  EL_x  PS_y
0.0  0.000000  0.000000  0.000000  -22.423222600549135  4.761765315880023  -6.619128684699286  47.448363458137756  9.314060437946544  4.536421347117456  -5.549765681921065  8.237701061021118  51.84433067237051  20.61837597783576  120.000000
0.031  0.000000  0.000000  0.000000  -22.425963983663284  5.100534790427361  -5.905834707770337  47.061102917169706  8.813088693812036  4.457956620029021  -14.114379419914894  9.468587528630406  60.20830361601023  20.24474605391229  120.000000
0.062  0.000000  0.000000  0.000000  -22.421655748585845  5.286584994751683  -5.189233887980415  46.721605445857996  8.23656284077792  4.480673571465325  -20.04171923754263  10.720296634175517  65.92945880624671  19.907052993285426  120.000000
0.093  0.000000  0.000000  0.000000  -22.428777003697427  5.330561938458081  -4.478819191303399  46.47216525322107  7.6132012565090506  4.580126214705381  -23.971018162848324  11.892687080386231  69.61600584413723  19.587089173256985  120.000000
0.124  0.000000  0.000000  0.000000  -22.45307063244169  5.262931762997685  -3.8125211411740993  46.39738671553137  6.983505986607793  4.698404499810862  -26.250907733447296  12.910478889537218  71.57899425017206  19.280151616854543  120.000000
0.155  0.000000  0.000000  0.000000  -22.49202096311124  5.134121492124092  -3.241712458810589  46.57331760906577  6.399701752223822  4.7674642385444725  -27.154743419591348  13.747682443308463  72.05590914577989  18.983663030894675  120.000000
0.186  0.000000  0.000000  0.000000  -22.573870379263422  5.0019597879148225  -2.7858580129063513  46.949996646071796  5.917253988631458  4.757816038358976  -27.16672119637546  14.474249275353722  71.49578167629213  18.674617393968436  120.000000
0.217  0.000000  0.000000  0.000000  -22.74787756613293  4.888263828687316  -2.406009171619073  47.367059640795894  5.5616692960844984  4.694122026816343  -26.88033604831134  15.21651160354148  70.46166803342274  18.3164653662852  120.000000
0.248  0.000000  0.000000  0.000000  -23.014939043156563  4.773597703631761  -2.056320761736114  47.72610755733981  5.318623593142926  4.616317054572162  -26.591827142099852  16.04879161057437  69.2337200782595  17.89784820948953  120.000000
0.279  0.000000  0.000000  0.000000  -23.337402871581205  4.652552305570148  -1.7294075105519846  48.033936803126984  5.167179306088878  4.538553289372398  -26.307314009223152  16.985270181805973  67.81618464602533  17.439364131720914  120.000000
0.31  0.000000  0.000000  0.000000  -23.687198926787282  4.5367474585636405  -1.4296800859532162  48.307600325294324  5.091918326252888  4.4606450185674795  -26.010248749368486  18.02824563503644  66.1950952372926  16.963302286936933  120.000000
0.34099999999999997  0.000000  0.000000  0.000000  -24.049804819180103  4.4365536604939555  -1.1547922908552195  48.546747131222425  5.078890674308799  4.3872345464372655  -25.707014270442453  19.174897863496707  64.38504728674427  16.485462154420173  120.000000
0.372  0.000000  0.000000  0.000000  -24.417384390546452  4.3615307356491675  -0.9001087456198177  48.74925734606585  5.116082852679585  4.323315229734069  -25.39906896485534  20.414547131107508  62.404052447616294  16.017786760508322  120.000000
0.403  0.000000  0.000000  0.000000  -24.78542862052827  4.3218518232542085  -0.6604919124665015  48.91435295065956  5.193702519468889  4.271440906491424  -25.089627037409322  21.731946973369624  60.28117908432634  15.567829321563034  120.000000
0.434  0.000000  0.000000  0.000000  -25.153076536580087  4.326353246124017  -0.4293312072881583  49.04077470266176  5.30400758112722  4.232620560468684  -24.78837858327581  23.110434019291773  58.05913192216264  15.139323555242386  120.000000
0.46499999999999997  0.000000  0.000000  0.000000  -25.521033205502267  4.381638623791448  -0.1987775118339643  49.12796999360765  5.440616113804439  4.206820267184707  -24.509870680278997  24.533386378942065  55.79011292854738  14.732725073674365  120.000000
0.496  0.000000  0.000000  0.000000  -25.8917325044371  4.491390530372319  0.03966368941627305  49.17707798658419  5.598273854535143  4.1930688608916835  -24.270702430284416  25.985121701170385  53.52944032154497  14.346306754487411  120.000000
0.527  0.000000  0.000000  0.000000  -26.26812715302938  4.65624590267367  0.2947686679717884  49.19171351116211  5.772497174408303  4.189979934448986  -24.087210957261806  27.451572273486104  51.33005365115795  13.976029584017148  120.000000
0.558  0.000000  0.000000  0.000000  -26.653566668931923  4.873836324291195  0.5755291899270997  49.17806387735669  5.959796686847716  4.196206202059702  -23.973390960765013  28.920687326970263  49.23795769363134  13.616479100152306  120.000000
0.589  0.000000  0.000000  0.000000  -27.050512898140568  5.139597809098937  0.8905633019184088  49.144627283488695  6.157510062414514  4.210797150148178  -23.939740941575817  30.382479086502823  47.289676089004544  13.26142581556688  120.000000
0.62  0.000000  0.000000  0.000000  -27.460411518342244  5.447506381400708  1.2477253695302064  49.10108071529423  6.363886567310365  4.2332454274644995  -23.99299706984266  31.828917247655763  45.51152300621958  12.905649610678793  120.000000
0.651  0.000000  0.000000  0.000000  -27.8828748882021  5.791051504761584  1.6538071352129933  49.05712706412536  6.577610415278802  4.263457463347793  -24.13576128551798  33.25365175326359  43.919191433305706  12.546062863456974  120.000000
0.6819999999999999  0.000000  0.000000  0.000000  -28.315932112315448  6.163922987394822  2.1147263377738246  49.02137743316629  6.7976693755119415  4.301470296240318  -24.366309347937392  34.651832755639  42.51788517933212  12.18345819093123  120.000000
0.713  0.000000  0.000000  0.000000  -28.755915341170894  6.560605537195107  2.6351654914364984  49.00072649682061  7.023127979260488  4.3475850822552085  -24.678478369200942  36.019842246062225  41.30263926508864  11.822494498899642  120.000000
0.744  0.000000  0.000000  0.000000  -29.198311260464106  6.976201661252371  3.21798101711538  49.00009287653055  7.253361632790329  4.4025497266334614  -25.06221253380253  37.355110433105835  40.25957875936269  11.47113239950993  120.000000
0.775  0.000000  0.000000  0.000000  -29.638075479478115  7.406193822089579  3.86407524131317  49.022803702226796  7.487748369354984  4.467604967893855  -25.50403275782077  38.65591859995976  39.36729875406317  11.138322406867564  120.000000
0.806  0.000000  0.000000  0.000000  -30.07050805637883  7.845975389883387  4.573006541168093  49.07112229568251  7.725499640325306  4.544057929344265  -25.987698640167324  39.921341162144515  38.59850059836552  10.83206310779786  120.000000
0.837  0.000000  0.000000  0.000000  -30.491630659381162  8.290690690891184  5.34311081758209  49.14676917208807  7.965440754161599  4.633185319273584  -26.495013046479215  41.150964290462845  37.92190354089074  10.55691499544326  120.000000
0.868  0.000000  0.000000  0.000000  -30.89871110594722  8.734929663331398  6.171667578832947  49.251068091377206  8.206239534949944  4.735995710214044  -27.00684508474467  42.344780363436826  37.30456864689563  10.313033302189904  120.000000
0.899  0.000000  0.000000  0.000000  -31.290050659497677  9.172973629631668  7.054927499932825  49.38492182673595  8.446362869163943  4.853144062191942  -27.504275157797167  43.50303580039413  36.7148185603765  10.095890003943007  120.000000
0.9299999999999999  0.000000  0.000000  0.000000  -31.66478301435003  9.598996662119747  7.988208813789956  49.548337929407275  8.684295156614672  4.984752314198086  -27.969709587194487  44.62643639058722  36.12534066103033  9.897689741298409  120.000000
0.961  0.000000  0.000000  0.000000  -32.02224170103878  10.007684573684038  8.96581910459468  49.739985203146766  8.918274595830798  5.130366325460829  -28.3877979840886  45.71627854590003  35.51627717146716  9.708651700179358  120.000000
0.992  0.000000  0.000000  0.000000  -32.3616600774027  10.394576312097142  9.981014445377788  49.95654866461621  9.146187853877274  5.288897551961253  -28.74606040553499  46.77481804979897  34.877545746804714  9.518730636187062  120.000000
1.023  0.000000  0.000000  0.000000  -32.68187394875872  10.756659385897148  11.025955721755041  50.192608808899436  9.365238511688698  5.458607109217034  -29.035198415045066  47.80525012261387  34.20981047293459  9.318584192204488  120.000000
1.054  0.000000  0.000000  0.000000  -32.98189344012061  11.092163795255992  12.091552199346935  50.44078588739477  9.571772220148981  5.636896997397955  -29.249716960138375  48.8111546288493  33.52373642471769  9.100560039050633  120.000000
1.085  0.000000  0.000000  0.000000  -33.261680839050655  11.400372622207602  13.167857134265944  50.69238043874003  9.761226937214925  5.820506117497668  -29.388166371583893  49.795385730994234  32.83706031165024  8.85914139861518  120.000000
